<mxfile host="65bd71144e" modified="2020-11-18T20:08:56.003Z" agent="5.0 (Windows NT 10.0; Win64; x64) AppleWebKit/537.36 (KHTML, like Gecko) Code/1.51.1 Chrome/83.0.4103.122 Electron/9.3.3 Safari/537.36" etag="RaKgUHO2r90wi1ONwJOm" version="13.6.5">
    <diagram id="Sbarbl0xUuu28748DRi9" name="Page-1">
        <mxGraphModel dx="1074" dy="486" grid="1" gridSize="10" guides="1" tooltips="1" connect="1" arrows="1" fold="1" page="1" pageScale="1" pageWidth="827" pageHeight="1169" math="0" shadow="0">
            <root>
                <mxCell id="0"/>
                <mxCell id="1" parent="0"/>
                <mxCell id="mkRkD8uat_5aBkjdAIV9-37" value="&lt;p style=&quot;text-align: center ; margin: 6px 0px 0px&quot;&gt;&lt;b style=&quot;font-size: 12px ; line-height: 140%&quot;&gt;&lt;font style=&quot;font-size: 12px&quot;&gt;Logic&lt;/font&gt;&lt;/b&gt;&lt;/p&gt;&lt;hr&gt;&lt;p style=&quot;margin: 0px ; margin-left: 8px&quot;&gt;&lt;br&gt;&lt;/p&gt;" style="align=left;overflow=fill;html=1;dropTarget=0;comic=0;fontFamily=Lucida Console;fontSize=10;fontColor=#000000;treeFolding=0;treeMoving=0;resizeWidth=0;movableLabel=0;" parent="1" vertex="1">
                    <mxGeometry x="320" y="40" width="160" height="260" as="geometry"/>
                </mxCell>
                <mxCell id="mkRkD8uat_5aBkjdAIV9-38" value="" style="shape=component;jettyWidth=8;jettyHeight=4;comic=0;" parent="mkRkD8uat_5aBkjdAIV9-37" vertex="1">
                    <mxGeometry x="1" width="19" height="20" relative="1" as="geometry">
                        <mxPoint x="-24" y="4" as="offset"/>
                    </mxGeometry>
                </mxCell>
                <mxCell id="mkRkD8uat_5aBkjdAIV9-46" value="" style="group;comic=0;" parent="1" vertex="1" connectable="0">
                    <mxGeometry x="40" y="40" width="160" height="260" as="geometry"/>
                </mxCell>
                <mxCell id="mkRkD8uat_5aBkjdAIV9-35" value="&lt;p style=&quot;text-align: center ; margin: 6px 0px 0px&quot;&gt;&lt;b style=&quot;font-size: 12px ; line-height: 140%&quot;&gt;&lt;font style=&quot;font-size: 12px&quot;&gt;GUI&lt;/font&gt;&lt;/b&gt;&lt;/p&gt;&lt;hr&gt;&lt;p style=&quot;margin: 0px ; margin-left: 8px&quot;&gt;&lt;br&gt;&lt;/p&gt;" style="align=left;overflow=fill;html=1;dropTarget=0;comic=0;fontFamily=Lucida Console;fontSize=10;fontColor=#000000;treeFolding=0;treeMoving=0;resizeWidth=0;movableLabel=0;strokeColor=#000000;strokeWidth=1;" parent="mkRkD8uat_5aBkjdAIV9-46" vertex="1">
                    <mxGeometry width="160" height="260" as="geometry"/>
                </mxCell>
                <mxCell id="mkRkD8uat_5aBkjdAIV9-41" value="&lt;b&gt;:ImageView&amp;nbsp; &amp;nbsp;&lt;/b&gt;" style="html=1;dropTarget=0;comic=0;fontFamily=Lucida Console;" parent="mkRkD8uat_5aBkjdAIV9-46" vertex="1">
                    <mxGeometry x="20" y="120" width="120" height="40" as="geometry"/>
                </mxCell>
                <mxCell id="mkRkD8uat_5aBkjdAIV9-42" value="" style="shape=component;jettyWidth=8;jettyHeight=4;comic=0;fontFamily=Lucida Console;" parent="mkRkD8uat_5aBkjdAIV9-41" vertex="1">
                    <mxGeometry x="1" width="20" height="20" relative="1" as="geometry">
                        <mxPoint x="-27" y="7" as="offset"/>
                    </mxGeometry>
                </mxCell>
                <mxCell id="mkRkD8uat_5aBkjdAIV9-43" value="&lt;b&gt;:Controls&amp;nbsp; &amp;nbsp;&lt;/b&gt;" style="html=1;dropTarget=0;comic=0;fontFamily=Lucida Console;" parent="mkRkD8uat_5aBkjdAIV9-46" vertex="1">
                    <mxGeometry x="20" y="200" width="120" height="40" as="geometry"/>
                </mxCell>
                <mxCell id="mkRkD8uat_5aBkjdAIV9-44" value="" style="shape=component;jettyWidth=8;jettyHeight=4;comic=0;fontFamily=Lucida Console;" parent="mkRkD8uat_5aBkjdAIV9-43" vertex="1">
                    <mxGeometry x="1" width="20" height="20" relative="1" as="geometry">
                        <mxPoint x="-27" y="7" as="offset"/>
                    </mxGeometry>
                </mxCell>
                <mxCell id="mkRkD8uat_5aBkjdAIV9-36" value="" style="shape=component;jettyWidth=8;jettyHeight=4;comic=0;" parent="mkRkD8uat_5aBkjdAIV9-46" vertex="1">
                    <mxGeometry x="1" width="19" height="20" relative="1" as="geometry">
                        <mxPoint x="-24" y="4" as="offset"/>
                    </mxGeometry>
                </mxCell>
                <mxCell id="mkRkD8uat_5aBkjdAIV9-80" value="&lt;b&gt;:MetricsView&amp;nbsp; &amp;nbsp;&amp;nbsp;&lt;/b&gt;" style="html=1;dropTarget=0;comic=0;fontFamily=Lucida Console;" parent="mkRkD8uat_5aBkjdAIV9-46" vertex="1">
                    <mxGeometry x="20" y="40" width="120" height="40" as="geometry"/>
                </mxCell>
                <mxCell id="mkRkD8uat_5aBkjdAIV9-81" value="" style="shape=component;jettyWidth=8;jettyHeight=4;comic=0;fontFamily=Lucida Console;" parent="mkRkD8uat_5aBkjdAIV9-80" vertex="1">
                    <mxGeometry x="1" width="20" height="20" relative="1" as="geometry">
                        <mxPoint x="-27" y="7" as="offset"/>
                    </mxGeometry>
                </mxCell>
                <mxCell id="mkRkD8uat_5aBkjdAIV9-94" style="edgeStyle=orthogonalEdgeStyle;rounded=0;comic=0;jumpStyle=none;orthogonalLoop=1;jettySize=auto;html=1;exitX=0;exitY=0.5;exitDx=0;exitDy=0;shadow=0;labelBackgroundColor=#FFFFFF;startArrow=box;startFill=0;sourcePerimeterSpacing=-4;endArrow=oval;endFill=0;endSize=8;targetPerimeterSpacing=7;strokeColor=#000000;fontFamily=Lucida Console;fontSize=10;fontColor=#000000;" parent="1" source="mkRkD8uat_5aBkjdAIV9-50" edge="1">
                    <mxGeometry relative="1" as="geometry">
                        <mxPoint x="290" y="100.09523809523807" as="targetPoint"/>
                    </mxGeometry>
                </mxCell>
                <mxCell id="mkRkD8uat_5aBkjdAIV9-100" style="edgeStyle=orthogonalEdgeStyle;rounded=0;comic=0;jumpStyle=none;orthogonalLoop=1;jettySize=auto;html=1;exitX=1;exitY=0.5;exitDx=0;exitDy=0;shadow=0;labelBackgroundColor=#FFFFFF;startArrow=box;startFill=0;sourcePerimeterSpacing=-4;endArrow=halfCircle;endFill=0;endSize=6;targetPerimeterSpacing=7;strokeColor=#000000;fontFamily=Lucida Console;fontSize=10;fontColor=#000000;" parent="1" source="mkRkD8uat_5aBkjdAIV9-50" edge="1">
                    <mxGeometry relative="1" as="geometry">
                        <mxPoint x="510" y="100.09523809523807" as="targetPoint"/>
                    </mxGeometry>
                </mxCell>
                <mxCell id="mkRkD8uat_5aBkjdAIV9-104" style="edgeStyle=orthogonalEdgeStyle;rounded=0;comic=0;jumpStyle=none;orthogonalLoop=1;jettySize=auto;html=1;exitX=0.5;exitY=1;exitDx=0;exitDy=0;shadow=0;labelBackgroundColor=#FFFFFF;startArrow=box;startFill=0;sourcePerimeterSpacing=-4;endArrow=halfCircle;endFill=0;endSize=6;targetPerimeterSpacing=7;strokeColor=#000000;fontFamily=Lucida Console;fontSize=10;fontColor=#000000;" parent="1" source="mkRkD8uat_5aBkjdAIV9-50" edge="1">
                    <mxGeometry relative="1" as="geometry">
                        <mxPoint x="400.1428571428571" y="140" as="targetPoint"/>
                    </mxGeometry>
                </mxCell>
                <mxCell id="mkRkD8uat_5aBkjdAIV9-50" value="&lt;b&gt;&lt;font style=&quot;font-size: 10px&quot;&gt;:MetricsEngine&amp;nbsp; &amp;nbsp; &amp;nbsp;&lt;/font&gt;&lt;/b&gt;" style="html=1;dropTarget=0;comic=0;fontFamily=Lucida Console;" parent="1" vertex="1">
                    <mxGeometry x="340" y="80" width="120" height="40" as="geometry"/>
                </mxCell>
                <mxCell id="mkRkD8uat_5aBkjdAIV9-51" value="" style="shape=component;jettyWidth=8;jettyHeight=4;comic=0;fontFamily=Lucida Console;" parent="mkRkD8uat_5aBkjdAIV9-50" vertex="1">
                    <mxGeometry x="1" width="20" height="20" relative="1" as="geometry">
                        <mxPoint x="-27" y="7" as="offset"/>
                    </mxGeometry>
                </mxCell>
                <mxCell id="mkRkD8uat_5aBkjdAIV9-54" value="" style="group;comic=0;" parent="1" vertex="1" connectable="0">
                    <mxGeometry x="600" y="40" width="160" height="180" as="geometry"/>
                </mxCell>
                <mxCell id="mkRkD8uat_5aBkjdAIV9-39" value="&lt;p style=&quot;text-align: center ; margin: 6px 0px 0px&quot;&gt;&lt;b style=&quot;font-size: 12px ; line-height: 140%&quot;&gt;&lt;font style=&quot;font-size: 12px&quot;&gt;Data&lt;/font&gt;&lt;/b&gt;&lt;/p&gt;&lt;hr&gt;&lt;p style=&quot;margin: 0px ; margin-left: 8px&quot;&gt;&lt;br&gt;&lt;/p&gt;" style="align=left;overflow=fill;html=1;dropTarget=0;comic=0;fontFamily=Lucida Console;fontSize=10;fontColor=#000000;treeFolding=0;treeMoving=0;resizeWidth=0;movableLabel=0;" parent="mkRkD8uat_5aBkjdAIV9-54" vertex="1">
                    <mxGeometry width="160" height="180" as="geometry"/>
                </mxCell>
                <mxCell id="mkRkD8uat_5aBkjdAIV9-40" value="" style="shape=component;jettyWidth=8;jettyHeight=4;comic=0;" parent="mkRkD8uat_5aBkjdAIV9-39" vertex="1">
                    <mxGeometry x="1" width="19" height="20" relative="1" as="geometry">
                        <mxPoint x="-24" y="4" as="offset"/>
                    </mxGeometry>
                </mxCell>
                <mxCell id="mkRkD8uat_5aBkjdAIV9-47" value="&lt;b&gt;:ImageFiles&amp;nbsp; &amp;nbsp;&lt;/b&gt;" style="html=1;dropTarget=0;comic=0;fontFamily=Lucida Console;" parent="mkRkD8uat_5aBkjdAIV9-54" vertex="1">
                    <mxGeometry x="20" y="120" width="120" height="40" as="geometry"/>
                </mxCell>
                <mxCell id="mkRkD8uat_5aBkjdAIV9-48" value="" style="shape=component;jettyWidth=8;jettyHeight=4;comic=0;fontFamily=Lucida Console;" parent="mkRkD8uat_5aBkjdAIV9-47" vertex="1">
                    <mxGeometry x="1" width="20" height="20" relative="1" as="geometry">
                        <mxPoint x="-27" y="7" as="offset"/>
                    </mxGeometry>
                </mxCell>
                <mxCell id="mkRkD8uat_5aBkjdAIV9-52" value="&lt;b&gt;:PluginFiles&amp;nbsp; &amp;nbsp;&amp;nbsp;&lt;/b&gt;" style="html=1;dropTarget=0;comic=0;fontFamily=Lucida Console;" parent="mkRkD8uat_5aBkjdAIV9-54" vertex="1">
                    <mxGeometry x="20" y="40" width="120" height="40" as="geometry"/>
                </mxCell>
                <mxCell id="mkRkD8uat_5aBkjdAIV9-53" value="" style="shape=component;jettyWidth=8;jettyHeight=4;comic=0;fontFamily=Lucida Console;" parent="mkRkD8uat_5aBkjdAIV9-52" vertex="1">
                    <mxGeometry x="1" width="20" height="20" relative="1" as="geometry">
                        <mxPoint x="-27" y="7" as="offset"/>
                    </mxGeometry>
                </mxCell>
                <mxCell id="mkRkD8uat_5aBkjdAIV9-84" style="edgeStyle=orthogonalEdgeStyle;rounded=0;comic=0;jumpStyle=none;orthogonalLoop=1;jettySize=auto;html=1;exitX=0.5;exitY=0;exitDx=0;exitDy=0;shadow=0;labelBackgroundColor=#FFFFFF;startArrow=box;startFill=0;sourcePerimeterSpacing=-4;endArrow=oval;endFill=0;endSize=8;targetPerimeterSpacing=7;strokeColor=#000000;fontFamily=Lucida Console;fontSize=10;fontColor=#000000;" parent="1" source="mkRkD8uat_5aBkjdAIV9-55" edge="1">
                    <mxGeometry relative="1" as="geometry">
                        <mxPoint x="400" y="220" as="targetPoint"/>
                    </mxGeometry>
                </mxCell>
                <mxCell id="mkRkD8uat_5aBkjdAIV9-96" style="edgeStyle=orthogonalEdgeStyle;rounded=0;comic=0;jumpStyle=none;orthogonalLoop=1;jettySize=auto;html=1;exitX=0;exitY=0.5;exitDx=0;exitDy=0;shadow=0;labelBackgroundColor=#FFFFFF;startArrow=box;startFill=0;sourcePerimeterSpacing=-4;endArrow=oval;endFill=0;endSize=8;targetPerimeterSpacing=7;strokeColor=#000000;fontFamily=Lucida Console;fontSize=10;fontColor=#000000;" parent="1" source="mkRkD8uat_5aBkjdAIV9-55" edge="1">
                    <mxGeometry relative="1" as="geometry">
                        <mxPoint x="290" y="260.0952380952381" as="targetPoint"/>
                    </mxGeometry>
                </mxCell>
                <mxCell id="mkRkD8uat_5aBkjdAIV9-55" value="&lt;b&gt;:&lt;/b&gt;&lt;font&gt;&lt;span style=&quot;font-size: 10px&quot;&gt;&lt;b&gt;Modifications&lt;/b&gt;&lt;/span&gt;&lt;font size=&quot;1&quot;&gt;&lt;b&gt;&amp;nbsp;&lt;/b&gt;&lt;/font&gt;&lt;/font&gt;&lt;font style=&quot;font-weight: bold ; font-size: 10px&quot;&gt; &amp;nbsp; &amp;nbsp;&lt;/font&gt;" style="html=1;dropTarget=0;comic=0;fontFamily=Lucida Console;" parent="1" vertex="1">
                    <mxGeometry x="340" y="240" width="120" height="40" as="geometry"/>
                </mxCell>
                <mxCell id="mkRkD8uat_5aBkjdAIV9-56" value="" style="shape=component;jettyWidth=8;jettyHeight=4;comic=0;fontFamily=Lucida Console;" parent="mkRkD8uat_5aBkjdAIV9-55" vertex="1">
                    <mxGeometry x="1" width="20" height="20" relative="1" as="geometry">
                        <mxPoint x="-27" y="7" as="offset"/>
                    </mxGeometry>
                </mxCell>
                <mxCell id="mkRkD8uat_5aBkjdAIV9-88" style="edgeStyle=orthogonalEdgeStyle;rounded=0;comic=0;jumpStyle=none;orthogonalLoop=1;jettySize=auto;html=1;exitX=1;exitY=0.5;exitDx=0;exitDy=0;shadow=0;labelBackgroundColor=#FFFFFF;startArrow=box;startFill=0;sourcePerimeterSpacing=-4;endArrow=halfCircle;endFill=0;endSize=6;targetPerimeterSpacing=7;strokeColor=#000000;fontFamily=Lucida Console;fontSize=10;fontColor=#000000;" parent="1" source="mkRkD8uat_5aBkjdAIV9-61" edge="1">
                    <mxGeometry relative="1" as="geometry">
                        <mxPoint x="510" y="180.09523809523807" as="targetPoint"/>
                    </mxGeometry>
                </mxCell>
                <mxCell id="mkRkD8uat_5aBkjdAIV9-95" style="edgeStyle=orthogonalEdgeStyle;rounded=0;comic=0;jumpStyle=none;orthogonalLoop=1;jettySize=auto;html=1;exitX=0;exitY=0.5;exitDx=0;exitDy=0;shadow=0;labelBackgroundColor=#FFFFFF;startArrow=box;startFill=0;sourcePerimeterSpacing=-4;endArrow=oval;endFill=0;endSize=8;targetPerimeterSpacing=7;strokeColor=#000000;fontFamily=Lucida Console;fontSize=10;fontColor=#000000;" parent="1" source="mkRkD8uat_5aBkjdAIV9-61" edge="1">
                    <mxGeometry relative="1" as="geometry">
                        <mxPoint x="290" y="180.09523809523807" as="targetPoint"/>
                    </mxGeometry>
                </mxCell>
                <mxCell id="mkRkD8uat_5aBkjdAIV9-102" style="edgeStyle=orthogonalEdgeStyle;rounded=0;comic=0;jumpStyle=none;orthogonalLoop=1;jettySize=auto;html=1;exitX=0.5;exitY=1;exitDx=0;exitDy=0;shadow=0;labelBackgroundColor=#FFFFFF;startArrow=box;startFill=0;sourcePerimeterSpacing=-4;endArrow=halfCircle;endFill=0;endSize=6;targetPerimeterSpacing=7;strokeColor=#000000;fontFamily=Lucida Console;fontSize=10;fontColor=#000000;" parent="1" source="mkRkD8uat_5aBkjdAIV9-61" edge="1">
                    <mxGeometry relative="1" as="geometry">
                        <mxPoint x="400.1428571428571" y="220" as="targetPoint"/>
                    </mxGeometry>
                </mxCell>
                <mxCell id="mkRkD8uat_5aBkjdAIV9-103" style="edgeStyle=orthogonalEdgeStyle;rounded=0;comic=0;jumpStyle=none;orthogonalLoop=1;jettySize=auto;html=1;exitX=0.5;exitY=0;exitDx=0;exitDy=0;shadow=0;labelBackgroundColor=#FFFFFF;startArrow=box;startFill=0;sourcePerimeterSpacing=-4;endArrow=oval;endFill=0;endSize=8;targetPerimeterSpacing=7;strokeColor=#000000;fontFamily=Lucida Console;fontSize=10;fontColor=#000000;" parent="1" source="mkRkD8uat_5aBkjdAIV9-61" edge="1">
                    <mxGeometry relative="1" as="geometry">
                        <mxPoint x="400" y="140" as="targetPoint"/>
                    </mxGeometry>
                </mxCell>
                <mxCell id="mkRkD8uat_5aBkjdAIV9-61" value="&lt;b&gt;:ImageData&amp;nbsp; &amp;nbsp;&lt;/b&gt;" style="html=1;dropTarget=0;comic=0;fontFamily=Lucida Console;" parent="1" vertex="1">
                    <mxGeometry x="340" y="160" width="120" height="40" as="geometry"/>
                </mxCell>
                <mxCell id="mkRkD8uat_5aBkjdAIV9-62" value="" style="shape=component;jettyWidth=8;jettyHeight=4;comic=0;fontFamily=Lucida Console;" parent="mkRkD8uat_5aBkjdAIV9-61" vertex="1">
                    <mxGeometry x="1" width="20" height="20" relative="1" as="geometry">
                        <mxPoint x="-27" y="7" as="offset"/>
                    </mxGeometry>
                </mxCell>
                <mxCell id="mkRkD8uat_5aBkjdAIV9-66" value="Display&lt;br&gt;Image" style="text;html=1;align=center;verticalAlign=bottom;resizable=0;points=[];autosize=1;fontSize=10;fontFamily=Lucida Console;fontColor=#000000;comic=0;" parent="1" vertex="1">
                    <mxGeometry x="260" y="150" width="60" height="30" as="geometry"/>
                </mxCell>
                <mxCell id="mkRkD8uat_5aBkjdAIV9-69" value="" style="endArrow=openThin;html=1;shadow=0;dashed=1;labelBackgroundColor=#FFFFFF;strokeColor=#000000;fontFamily=Lucida Console;fontSize=10;fontColor=#000000;endFill=0;endSize=8;comic=0;" parent="1" edge="1">
                    <mxGeometry width="50" height="50" relative="1" as="geometry">
                        <mxPoint x="510" y="179.8" as="sourcePoint"/>
                        <mxPoint x="570" y="179.8" as="targetPoint"/>
                    </mxGeometry>
                </mxCell>
                <mxCell id="mkRkD8uat_5aBkjdAIV9-70" value="Load&lt;br&gt;Image" style="text;html=1;align=center;verticalAlign=middle;resizable=0;points=[];autosize=1;fontSize=10;fontFamily=Lucida Console;fontColor=#000000;comic=0;" parent="1" vertex="1">
                    <mxGeometry x="550" y="150" width="50" height="30" as="geometry"/>
                </mxCell>
                <mxCell id="mkRkD8uat_5aBkjdAIV9-76" value="Load&lt;br&gt;Plugins" style="text;html=1;align=center;verticalAlign=middle;resizable=0;points=[];autosize=1;fontSize=10;fontFamily=Lucida Console;fontColor=#000000;comic=0;" parent="1" vertex="1">
                    <mxGeometry x="540" y="70" width="60" height="30" as="geometry"/>
                </mxCell>
                <mxCell id="mkRkD8uat_5aBkjdAIV9-79" value="Modify" style="text;html=1;align=center;verticalAlign=middle;resizable=0;points=[];autosize=1;fontSize=10;fontFamily=Lucida Console;fontColor=#000000;comic=0;" parent="1" vertex="1">
                    <mxGeometry x="270" y="240" width="50" height="20" as="geometry"/>
                </mxCell>
                <mxCell id="mkRkD8uat_5aBkjdAIV9-83" value="Display&lt;br&gt;Metrics" style="text;html=1;align=center;verticalAlign=middle;resizable=0;points=[];autosize=1;fontSize=10;fontFamily=Lucida Console;fontColor=#000000;comic=0;" parent="1" vertex="1">
                    <mxGeometry x="260" y="70" width="60" height="30" as="geometry"/>
                </mxCell>
                <mxCell id="mkRkD8uat_5aBkjdAIV9-85" value="Operation" style="text;html=1;align=right;verticalAlign=middle;resizable=0;points=[];autosize=1;fontSize=10;fontFamily=Lucida Console;fontColor=#000000;comic=0;" parent="1" vertex="1">
                    <mxGeometry x="320" y="210" width="70" height="20" as="geometry"/>
                </mxCell>
                <mxCell id="mkRkD8uat_5aBkjdAIV9-87" value="Trigger" style="text;html=1;align=right;verticalAlign=middle;resizable=0;points=[];autosize=1;fontSize=10;fontFamily=Lucida Console;fontColor=#000000;comic=0;" parent="1" vertex="1">
                    <mxGeometry x="330" y="130" width="60" height="20" as="geometry"/>
                </mxCell>
                <mxCell id="mkRkD8uat_5aBkjdAIV9-89" style="edgeStyle=orthogonalEdgeStyle;rounded=0;comic=0;jumpStyle=none;orthogonalLoop=1;jettySize=auto;html=1;exitX=1;exitY=0.5;exitDx=0;exitDy=0;shadow=0;labelBackgroundColor=#FFFFFF;startArrow=box;startFill=0;sourcePerimeterSpacing=-4;endArrow=halfCircle;endFill=0;endSize=6;targetPerimeterSpacing=7;strokeColor=#000000;fontFamily=Lucida Console;fontSize=10;fontColor=#000000;" parent="1" source="mkRkD8uat_5aBkjdAIV9-43" edge="1">
                    <mxGeometry relative="1" as="geometry">
                        <mxPoint x="230" y="260.0952380952381" as="targetPoint"/>
                    </mxGeometry>
                </mxCell>
                <mxCell id="mkRkD8uat_5aBkjdAIV9-90" style="edgeStyle=orthogonalEdgeStyle;rounded=0;comic=0;jumpStyle=none;orthogonalLoop=1;jettySize=auto;html=1;exitX=1;exitY=0.5;exitDx=0;exitDy=0;shadow=0;labelBackgroundColor=#FFFFFF;startArrow=box;startFill=0;sourcePerimeterSpacing=-4;endArrow=halfCircle;endFill=0;endSize=6;targetPerimeterSpacing=7;strokeColor=#000000;fontFamily=Lucida Console;fontSize=10;fontColor=#000000;" parent="1" source="mkRkD8uat_5aBkjdAIV9-41" edge="1">
                    <mxGeometry relative="1" as="geometry">
                        <mxPoint x="230" y="180.09523809523807" as="targetPoint"/>
                    </mxGeometry>
                </mxCell>
                <mxCell id="mkRkD8uat_5aBkjdAIV9-91" style="edgeStyle=orthogonalEdgeStyle;rounded=0;comic=0;jumpStyle=none;orthogonalLoop=1;jettySize=auto;html=1;exitX=1;exitY=0.5;exitDx=0;exitDy=0;shadow=0;labelBackgroundColor=#FFFFFF;startArrow=box;startFill=0;sourcePerimeterSpacing=-4;endArrow=halfCircle;endFill=0;endSize=6;targetPerimeterSpacing=7;strokeColor=#000000;fontFamily=Lucida Console;fontSize=10;fontColor=#000000;" parent="1" source="mkRkD8uat_5aBkjdAIV9-80" edge="1">
                    <mxGeometry relative="1" as="geometry">
                        <mxPoint x="230" y="100.09523809523807" as="targetPoint"/>
                    </mxGeometry>
                </mxCell>
                <mxCell id="mkRkD8uat_5aBkjdAIV9-92" style="edgeStyle=orthogonalEdgeStyle;rounded=0;comic=0;jumpStyle=none;orthogonalLoop=1;jettySize=auto;html=1;exitX=0;exitY=0.5;exitDx=0;exitDy=0;shadow=0;labelBackgroundColor=#FFFFFF;startArrow=box;startFill=0;sourcePerimeterSpacing=-4;endArrow=oval;endFill=0;endSize=8;targetPerimeterSpacing=7;strokeColor=#000000;fontFamily=Lucida Console;fontSize=10;fontColor=#000000;" parent="1" source="mkRkD8uat_5aBkjdAIV9-47" edge="1">
                    <mxGeometry relative="1" as="geometry">
                        <mxPoint x="570" y="180" as="targetPoint"/>
                    </mxGeometry>
                </mxCell>
                <mxCell id="mkRkD8uat_5aBkjdAIV9-93" style="edgeStyle=orthogonalEdgeStyle;rounded=0;comic=0;jumpStyle=none;orthogonalLoop=1;jettySize=auto;html=1;exitX=0;exitY=0.5;exitDx=0;exitDy=0;shadow=0;labelBackgroundColor=#FFFFFF;startArrow=box;startFill=0;sourcePerimeterSpacing=-4;endArrow=oval;endFill=0;endSize=8;targetPerimeterSpacing=7;strokeColor=#000000;fontFamily=Lucida Console;fontSize=10;fontColor=#000000;" parent="1" source="mkRkD8uat_5aBkjdAIV9-52" edge="1">
                    <mxGeometry relative="1" as="geometry">
                        <mxPoint x="570" y="100.09523809523807" as="targetPoint"/>
                    </mxGeometry>
                </mxCell>
                <mxCell id="mkRkD8uat_5aBkjdAIV9-97" value="" style="endArrow=openThin;html=1;shadow=0;dashed=1;labelBackgroundColor=#FFFFFF;strokeColor=#000000;fontFamily=Lucida Console;fontSize=10;fontColor=#000000;endFill=0;endSize=8;comic=0;" parent="1" edge="1">
                    <mxGeometry width="50" height="50" relative="1" as="geometry">
                        <mxPoint x="230" y="99.99999999999996" as="sourcePoint"/>
                        <mxPoint x="290" y="99.99999999999996" as="targetPoint"/>
                    </mxGeometry>
                </mxCell>
                <mxCell id="mkRkD8uat_5aBkjdAIV9-98" value="" style="endArrow=openThin;html=1;shadow=0;dashed=1;labelBackgroundColor=#FFFFFF;strokeColor=#000000;fontFamily=Lucida Console;fontSize=10;fontColor=#000000;endFill=0;endSize=8;comic=0;" parent="1" edge="1">
                    <mxGeometry width="50" height="50" relative="1" as="geometry">
                        <mxPoint x="230" y="179.99999999999994" as="sourcePoint"/>
                        <mxPoint x="290" y="179.99999999999994" as="targetPoint"/>
                    </mxGeometry>
                </mxCell>
                <mxCell id="mkRkD8uat_5aBkjdAIV9-99" value="" style="endArrow=openThin;html=1;shadow=0;dashed=1;labelBackgroundColor=#FFFFFF;strokeColor=#000000;fontFamily=Lucida Console;fontSize=10;fontColor=#000000;endFill=0;endSize=8;comic=0;" parent="1" edge="1">
                    <mxGeometry width="50" height="50" relative="1" as="geometry">
                        <mxPoint x="230" y="259.52" as="sourcePoint"/>
                        <mxPoint x="290" y="259.52" as="targetPoint"/>
                    </mxGeometry>
                </mxCell>
                <mxCell id="mkRkD8uat_5aBkjdAIV9-101" value="" style="endArrow=openThin;html=1;shadow=0;dashed=1;labelBackgroundColor=#FFFFFF;strokeColor=#000000;fontFamily=Lucida Console;fontSize=10;fontColor=#000000;endFill=0;endSize=8;comic=0;" parent="1" edge="1">
                    <mxGeometry width="50" height="50" relative="1" as="geometry">
                        <mxPoint x="510" y="99.99999999999996" as="sourcePoint"/>
                        <mxPoint x="570" y="99.99999999999996" as="targetPoint"/>
                    </mxGeometry>
                </mxCell>
            </root>
        </mxGraphModel>
    </diagram>
</mxfile>